<?xml version="1.0" standalone="no"?>
<!DOCTYPE svg PUBLIC "-//W3C//DTD SVG 20010904//EN"
 "http://www.w3.org/TR/2001/REC-SVG-20010904/DTD/svg10.dtd">
<svg version="1.0" xmlns="http://www.w3.org/2000/svg"
 width="2450.000000pt" height="2450.000000pt" viewBox="0 0 2450.000000 2450.000000"
 preserveAspectRatio="xMidYMid meet">
<metadata>
Created by potrace 1.11, written by Peter Selinger 2001-2013
</metadata>
<g transform="translate(0.000000,2450.000000) scale(0.100000,-0.100000)"
fill="#000000" stroke="none">
<path d="M2100 21921 l0 -1329 48 -10 c26 -6 74 -15 107 -21 33 -6 71 -13 85
-16 62 -13 388 -77 415 -81 17 -3 62 -11 100 -19 39 -8 81 -17 95 -19 14 -3
61 -12 105 -21 44 -9 89 -17 100 -19 11 -2 34 -6 50 -9 17 -4 41 -9 55 -11 14
-2 72 -14 130 -25 58 -11 116 -22 130 -25 102 -19 298 -57 360 -70 41 -8 89
-18 105 -21 71 -12 91 -16 105 -20 8 -2 31 -7 50 -10 19 -3 78 -14 130 -24 52
-11 112 -22 133 -26 29 -5 37 -10 37 -28 1 -29 1 -11181 0 -11229 l0 -38
-2220 0 -2220 0 0 -3500 0 -3500 1050 0 1050 0 0 -300 0 -300 4494 0 4495 0 0
288 c0 158 0 293 0 300 1 10 314 12 1548 10 l1547 -3 0 -298 0 -297 4358 0
4358 0 0 300 0 300 800 0 800 0 0 3500 0 3500 -3503 0 -3503 0 -79 116 c-44
63 -87 124 -95 134 -8 11 -34 47 -58 82 -100 146 -231 334 -241 345 -6 7 -11
16 -11 22 0 5 -4 11 -8 13 -4 2 -69 91 -143 198 -163 233 -191 274 -317 453
-53 76 -101 146 -107 155 -5 9 -12 19 -15 22 -3 3 -86 121 -185 263 -99 142
-196 280 -215 307 -19 27 -55 77 -79 112 -24 35 -95 137 -159 228 -63 91 -136
194 -160 230 -25 36 -102 146 -171 245 -69 99 -133 190 -141 202 -8 11 -51 72
-94 135 -44 62 -194 276 -333 475 -139 199 -253 368 -253 375 0 7 24 43 53 80
28 37 101 134 162 215 60 81 113 153 118 158 4 6 44 60 89 120 45 61 88 116
95 123 7 7 13 17 13 21 0 4 8 16 18 27 9 10 73 93 140 184 68 91 133 178 145
194 25 33 73 96 85 111 4 6 18 26 32 45 13 19 27 37 30 40 3 3 30 39 60 80 30
41 65 86 77 100 13 14 23 28 23 32 0 3 6 13 13 20 7 7 50 65 97 128 47 63 95
126 107 140 13 14 23 28 23 32 0 3 6 13 13 20 6 7 23 29 37 48 13 19 28 40 32
45 10 12 121 159 146 193 9 13 28 39 42 56 14 18 33 44 43 57 38 52 676 905
684 914 5 6 22 28 38 50 62 85 140 190 145 195 3 3 44 57 90 120 47 63 90 122
97 130 7 8 159 211 337 450 179 239 329 440 333 445 5 6 20 25 33 44 14 19 31
42 37 50 10 13 528 703 600 800 10 13 56 75 103 137 47 62 166 222 265 354 99
132 205 274 235 314 30 40 63 83 73 97 100 135 160 217 170 229 7 8 26 33 42
55 17 22 34 44 38 50 4 5 66 89 138 185 72 96 136 182 142 190 7 9 32 42 56
75 24 33 46 62 47 64 2 2 38 9 81 16 43 7 92 16 108 19 25 5 153 27 294 51 14
2 67 11 116 20 50 8 101 17 115 19 14 3 41 7 60 10 19 3 62 10 95 16 109 20
180 32 200 35 59 9 103 16 125 21 14 2 37 7 53 9 15 3 39 7 55 10 15 3 43 8
62 11 45 7 299 50 370 63 30 6 73 13 95 16 22 3 76 12 120 20 44 8 94 16 110
19 17 3 97 16 178 30 81 14 149 26 150 26 2 0 3 599 3 1330 l0 1330 -4357 0
-4358 0 2 -1332 2 -1331 25 -2 c27 -2 135 -16 160 -20 24 -4 92 -14 140 -20
93 -13 107 -14 185 -25 97 -14 132 -19 165 -25 14 -2 50 -7 80 -10 30 -3 62
-8 70 -10 8 -3 37 -7 64 -10 27 -2 63 -7 80 -10 17 -2 49 -7 71 -10 151 -22
193 -27 220 -30 17 -2 31 -4 33 -4 1 -1 -22 -36 -51 -78 -30 -43 -78 -114
-108 -158 -29 -44 -56 -82 -59 -85 -3 -3 -36 -52 -75 -110 -38 -58 -76 -111
-83 -118 -6 -8 -17 -22 -22 -33 -11 -19 -132 -195 -150 -216 -5 -7 -10 -16
-10 -22 0 -5 -3 -11 -7 -13 -7 -3 -67 -85 -103 -142 -21 -33 -189 -277 -450
-656 -67 -96 -191 -278 -232 -338 -24 -35 -48 -69 -53 -75 -6 -7 -37 -52 -71
-102 -33 -49 -91 -135 -129 -190 -39 -55 -90 -130 -115 -166 -75 -110 -170
-249 -233 -339 -32 -47 -75 -110 -95 -140 -21 -30 -40 -56 -44 -58 -5 -2 -8
-10 -8 -17 0 -7 -4 -15 -8 -17 -7 -3 -70 -90 -97 -136 -5 -9 -13 -19 -16 -22
-3 -3 -54 -77 -114 -165 -60 -88 -131 -191 -158 -230 -26 -38 -65 -95 -86
-125 -20 -30 -67 -98 -103 -150 -150 -217 -221 -321 -295 -430 -43 -63 -80
-117 -83 -120 -3 -3 -39 -54 -80 -115 -41 -60 -102 -150 -137 -200 -34 -49
-105 -153 -158 -230 -52 -77 -108 -158 -123 -180 -30 -43 -115 -166 -231 -335
-39 -58 -128 -186 -196 -285 -68 -99 -150 -219 -182 -267 l-58 -87 -961 0
-961 -1 -1 2939 0 2939 62 12 c33 7 70 14 81 16 11 2 34 7 50 10 17 3 71 14
120 24 50 11 101 22 115 24 14 3 36 7 50 10 14 4 61 13 105 22 44 8 91 17 104
20 37 8 714 146 731 149 32 7 326 66 345 70 21 4 152 31 195 40 14 3 41 8 60
11 19 3 51 9 70 14 19 5 49 11 65 14 17 3 42 8 56 11 l26 6 1 1330 0 1329
-4494 0 -4494 0 0 -1329z m9229 -11508 c12 -12 21 -24 21 -27 0 -4 273 -415
792 -1193 l228 -343 -1759 0 -1759 0 1 793 0 794 1228 -1 1228 -1 20 -22z"/>
</g>
</svg>
