<svg width="26" height="26" viewBox="0 0 26 26" xmlns="http://www.w3.org/2000/svg"><title>Codepen</title><g fill="#1A1918" fill-rule="evenodd"><path d="M12.632 23.877c-5.821 0-10.557-4.736-10.557-10.558 0-5.821 4.736-10.557 10.557-10.557 5.821 0 10.557 4.736 10.557 10.557 0 5.822-4.736 10.558-10.557 10.558m0-23.19C5.655.687 0 6.343 0 13.32c0 6.977 5.655 12.632 12.632 12.632 6.977 0 12.632-5.655 12.632-12.632C25.264 6.343 19.61.687 12.632.687"/><path d="M19.1 14.443l-1.68-1.124 1.68-1.123v2.247zm-5.797 4.761v-3.13l2.91-1.947 2.35 1.571-5.26 3.506zm-.67-4.297l-2.375-1.588 2.374-1.588 2.374 1.588-2.374 1.588zm-.672 4.297L6.7 15.698l2.35-1.57 2.91 1.945v3.131zm-5.797-7.008l1.68 1.123-1.68 1.124v-2.247zm5.797-4.762v3.131l-2.91 1.947L6.7 10.94l5.26-3.506zm1.342 0l5.26 3.506-2.35 1.572-2.91-1.947v-3.13zm7.134 3.418l-.006-.03a.657.657 0 0 0-.012-.055c-.002-.012-.007-.022-.01-.033-.005-.016-.01-.033-.017-.049a.65.65 0 0 0-.038-.077l-.02-.031a.598.598 0 0 0-.084-.106l-.027-.027a.767.767 0 0 0-.038-.032l-.03-.023-.011-.008-7.14-4.76a.671.671 0 0 0-.744 0l-7.14 4.76-.01.008-.031.023a.608.608 0 0 0-.038.032l-.027.027a.582.582 0 0 0-.104.137.625.625 0 0 0-.023.044l-.015.033-.017.05-.01.032c-.005.018-.009.037-.012.056l-.005.029a.646.646 0 0 0-.007.088v4.76c0 .029.003.058.007.087 0 .01.003.02.005.029.003.019.007.038.012.056l.01.033c.005.016.01.032.017.049l.015.032a.795.795 0 0 0 .07.117.444.444 0 0 0 .057.065l.027.026a.574.574 0 0 0 .068.055l.011.008 7.14 4.76a.671.671 0 0 0 .744 0l7.14-4.76.01-.008a.748.748 0 0 0 .07-.055l.026-.026a.643.643 0 0 0 .033-.036l.023-.03a.598.598 0 0 0 .029-.04l.019-.03a.604.604 0 0 0 .023-.046l.015-.032.017-.05c.003-.01.008-.02.01-.032a.661.661 0 0 0 .012-.056l.006-.029a.695.695 0 0 0 .006-.088v-4.76a.682.682 0 0 0-.006-.087z"/></g></svg>