<svg width="25" height="24" viewBox="0 0 25 24" xmlns="http://www.w3.org/2000/svg"><title>Github</title><path d="M12.522.358C6.056.358.815 5.599.815 12.065c0 5.172 3.354 9.56 8.007 11.108.585.107.799-.255.799-.564 0-.279-.01-1.202-.017-2.179-3.255.708-3.943-1.38-3.943-1.38-.533-1.353-1.3-1.713-1.3-1.713-1.065-.726.08-.711.08-.711 1.175.081 1.795 1.206 1.795 1.206 1.044 1.79 2.741 1.272 3.407.971.106-.754.409-1.272.743-1.563-2.599-.295-5.332-1.3-5.332-5.786 0-1.279.457-2.321 1.204-3.142-.12-.297-.523-1.488.116-3.099 0 0 .981-.314 3.219 1.2.933-.26 1.934-.389 2.929-.393.994.004 1.996.134 2.93.395 2.234-1.516 3.218-1.2 3.218-1.2.64 1.612.237 2.802.117 3.098.75.82 1.203 1.863 1.203 3.142 0 4.498-2.738 5.488-5.346 5.778.422.363.794 1.075.794 2.166 0 1.566-.015 2.827-.015 3.213 0 .312.212.676.805.562 4.649-1.551 8-5.938 8-11.108C24.227 5.6 18.985.359 12.52.359V.358z" fill="#000" fill-rule="evenodd"/></svg>