<?xml version="1.0" encoding="UTF-8" standalone="no"?>
<svg width="22px" height="22px" viewBox="0 0 22 22" version="1.1" xmlns="http://www.w3.org/2000/svg" xmlns:xlink="http://www.w3.org/1999/xlink">
    <!-- Generator: Sketch 3.8.3 (29802) - http://www.bohemiancoding.com/sketch -->
    <title>linkedin</title>
    <desc>Created with Sketch.</desc>
    <defs></defs>
    <g id="Page-1" stroke="none" stroke-width="1" fill="none" fill-rule="evenodd" fill-opacity="0.9">
        <g id="Desktop-HD" transform="translate(-361.000000, -484.000000)" fill="#000000">
            <g id="Group" transform="translate(249.000000, 482.000000)">
                <path d="M112.461914,9.32617188 L112.461914,23.5380859 L117.038086,23.5380859 L117.038086,9.32617188 L112.461914,9.32617188 Z M124.375,15.2880859 C124.375,13.4511719 125.545898,12.5380859 126.920898,12.5380859 C128.295898,12.5380859 129.413086,13.4511719 129.413086,15.75 L129.413086,23.5380859 L134,23.5380859 L134,15.2880859 C134,11.1630859 131.711914,8.875 128.5,8.875 C126.663086,8.875 125.288086,9.91699219 124.375,11.2919922 L124.224609,9.32617188 L119.712891,9.32617188 C119.712891,9.80957031 119.788086,12.5380859 119.788086,12.5380859 L119.788086,23.5380859 L124.375,23.5380859 L124.375,15.2880859 Z M114.728516,7.03808594 C116.425781,7.03808594 117.5,5.92089844 117.5,4.51367188 C117.478516,3.09570312 116.425781,2 114.771484,2 C113.095703,2 112,3.09570312 112,4.51367188 C112,5.92089844 113.074219,7.03808594 114.696289,7.03808594 L114.728516,7.03808594 L114.728516,7.03808594 Z" id="linkedin"></path>
            </g>
        </g>
    </g>
</svg>