<svg width="22" height="22" viewBox="0 0 22 22" xmlns="http://www.w3.org/2000/svg"><title>Linkedin</title><path d="M.462 7.326v14.212h4.576V7.326H.462zm11.913 5.962c0-1.837 1.17-2.75 2.546-2.75 1.375 0 2.492.913 2.492 3.212v7.788H22v-8.25c0-4.125-2.288-6.413-5.5-6.413-1.837 0-3.212 1.042-4.125 2.417l-.15-1.966H7.713c0 .484.075 3.212.075 3.212v11h4.587v-8.25zm-9.646-8.25c1.697 0 2.771-1.117 2.771-2.524C5.479 1.096 4.426 0 2.771 0 1.096 0 0 1.096 0 2.514 0 3.92 1.074 5.038 2.696 5.038h.033z" fill-rule="evenodd" fill-opacity=".9"/></svg>