<?xml version="1.0" encoding="UTF-8" standalone="no"?>
<svg width="24px" height="19px" viewBox="0 0 24 19" version="1.1" xmlns="http://www.w3.org/2000/svg" xmlns:xlink="http://www.w3.org/1999/xlink">
    <!-- Generator: Sketch 3.8.3 (29802) - http://www.bohemiancoding.com/sketch -->
    <title>Medium_icon</title>
    <desc>Created with Sketch.</desc>
    <defs></defs>
    <g id="Page-1" stroke="none" stroke-width="1" fill="none" fill-rule="evenodd">
        <g id="Desktop-HD" transform="translate(-395.000000, -487.000000)" fill="#231F20">
            <g id="Group" transform="translate(249.000000, 482.000000)">
                <g id="Medium_icon" transform="translate(146.000000, 5.000000)">
                    <g id="svg2">
                        <g id="g10" transform="translate(11.968504, 9.475066) scale(1, -1) translate(-11.968504, -9.475066) translate(0.000000, 0.000001)">
                            <g id="g12">
                                <path d="M23.9370073,16.1574799 L22.9902986,16.1574799 C22.6388236,16.1574799 22.1417317,15.6504542 22.1417317,15.3258484 L22.1417317,3.56062983 C22.1417317,3.23562512 22.6388236,2.79265085 22.9902986,2.79265085 L23.9370073,2.79265085 L23.9370073,0 L15.3595797,0 L15.3595797,2.79265085 L17.1548552,2.79265085 L17.1548552,15.1601046 L17.0668867,15.1601046 L12.8745593,0 L9.62880081,0 L5.49055104,15.1601046 L5.38582664,15.1601046 L5.38582664,2.79265085 L7.18110218,2.79265085 L7.18110218,0 L0,0 L0,2.79265085 L0.91953415,2.79265085 C1.29822359,2.79265085 1.79527555,3.23562512 1.79527555,3.56062983 L1.79527555,15.3258484 C1.79527555,15.6504542 1.29822359,16.1574799 0.91953415,16.1574799 L0,16.1574799 L0,18.9501308 L8.97964912,18.9501308 L11.9278307,7.97900243 L12.0089372,7.97900243 L14.984387,18.9501308 L23.9370073,18.9501308 L23.9370073,16.1574799" id="path14"></path>
                            </g>
                        </g>
                    </g>
                </g>
            </g>
        </g>
    </g>
</svg>