<?xml version="1.0" standalone="no"?>
<!DOCTYPE svg PUBLIC "-//W3C//DTD SVG 20010904//EN"
 "http://www.w3.org/TR/2001/REC-SVG-20010904/DTD/svg10.dtd">
<svg version="1.0" xmlns="http://www.w3.org/2000/svg"
 width="1600.000000pt" height="1600.000000pt" viewBox="0 0 1600.000000 1600.000000"
 preserveAspectRatio="xMidYMid meet">
<metadata>
Created by potrace 1.11, written by Peter Selinger 2001-2013
</metadata>
<g transform="translate(0.000000,1600.000000) scale(0.100000,-0.100000)"
fill="#000000" stroke="none">
<path d="M3100 13300 c0 -302 3 -551 8 -553 4 -3 39 -8 77 -12 39 -4 86 -8
105 -11 19 -2 58 -6 85 -9 81 -10 192 -22 275 -30 30 -3 66 -8 80 -10 14 -2
54 -7 90 -10 251 -23 323 -46 357 -114 17 -34 18 -204 18 -3741 0 -2038 -3
-3715 -6 -3727 -9 -37 -49 -84 -82 -98 -37 -15 -83 -23 -176 -31 -36 -2 -84
-7 -106 -10 -22 -2 -60 -7 -85 -10 -25 -2 -61 -7 -80 -9 -19 -2 -57 -7 -85
-10 -27 -3 -66 -8 -85 -10 -19 -3 -66 -7 -105 -11 -38 -3 -79 -8 -90 -10 -11
-2 -49 -7 -85 -10 -36 -3 -74 -6 -85 -8 -20 -3 -20 -12 -23 -554 l-2 -552
2280 0 2280 0 -2 552 c-3 518 -4 551 -21 554 -9 1 -52 5 -95 9 -42 3 -88 8
-102 10 -14 2 -59 7 -100 10 -41 4 -88 9 -105 11 -16 2 -54 6 -84 9 -30 3 -74
7 -98 10 -70 8 -124 14 -198 20 -38 4 -81 8 -95 10 -14 2 -52 7 -85 10 -219
21 -264 37 -294 105 -13 31 -15 132 -17 853 l-1 819 56 66 c31 37 61 72 66 78
6 6 29 33 51 60 102 121 448 533 566 674 72 85 134 156 137 157 3 2 19 -18 36
-45 26 -42 75 -119 220 -342 23 -36 90 -138 149 -228 58 -89 106 -165 106
-168 0 -3 5 -10 10 -17 13 -15 143 -215 420 -644 118 -183 245 -379 282 -435
36 -57 114 -177 173 -268 59 -91 137 -212 175 -270 38 -58 88 -134 110 -170
22 -36 124 -193 226 -350 102 -157 208 -321 236 -365 54 -83 130 -200 290
-445 51 -80 111 -173 132 -208 l39 -62 1543 0 1544 0 0 549 c0 618 9 554 -80
566 -25 3 -52 8 -60 10 -8 3 -33 7 -55 10 -22 3 -49 7 -60 9 -11 2 -56 9 -100
16 -44 7 -89 14 -100 16 -11 2 -40 7 -65 10 -25 3 -54 8 -65 10 -11 2 -40 7
-64 10 -25 3 -48 7 -51 9 -3 2 -33 7 -65 10 -33 4 -70 11 -81 16 -12 4 -24 6
-26 4 -9 -9 -168 25 -217 45 -29 13 -70 43 -99 74 -47 49 -152 199 -152 216 0
5 -3 10 -8 12 -4 2 -27 35 -52 73 -25 39 -48 72 -52 73 -5 2 -8 8 -8 12 0 5
-44 76 -98 157 -54 81 -152 230 -217 331 -66 100 -184 280 -262 399 -79 118
-143 217 -143 219 0 1 -64 99 -142 218 -79 119 -191 289 -249 378 -59 90 -169
258 -244 373 -76 116 -166 253 -200 305 -34 52 -127 194 -207 315 -79 121
-193 295 -253 388 -61 92 -195 297 -299 455 -104 158 -213 324 -242 369 l-53
83 71 82 c40 46 93 106 118 133 74 83 177 198 200 225 94 108 215 245 230 260
3 3 70 79 150 170 79 91 147 167 150 170 5 5 126 141 185 209 17 19 37 42 45
51 8 8 44 49 80 90 36 40 72 81 80 90 8 9 42 47 76 85 67 77 211 240 260 295
54 60 206 233 269 305 33 37 69 78 80 89 11 12 51 57 90 101 38 44 84 96 101
115 17 19 53 60 80 90 51 58 164 186 199 225 11 13 45 51 75 86 114 131 142
157 199 188 53 28 128 52 206 66 17 2 41 7 55 10 14 3 45 8 70 11 25 3 63 10
85 14 22 5 63 12 90 15 28 4 57 8 65 10 8 3 33 7 55 10 39 6 118 19 180 31 16
3 31 7 34 9 3 4 5 1034 2 1097 -1 15 -130 16 -1827 15 l-1825 -2 0 -553 c0
-305 1 -555 3 -557 4 -4 59 -12 238 -35 110 -14 159 -20 190 -25 14 -2 48 -6
75 -10 28 -3 66 -8 85 -10 19 -3 51 -7 70 -9 159 -20 181 -24 188 -30 3 -4
-107 -136 -148 -176 -3 -3 -70 -79 -150 -170 -80 -91 -149 -170 -155 -176 -5
-6 -37 -42 -70 -80 -33 -37 -67 -75 -75 -84 -8 -9 -58 -65 -110 -125 -52 -61
-101 -117 -110 -125 -8 -8 -42 -46 -75 -85 -73 -85 -85 -99 -132 -151 -21 -22
-63 -69 -93 -104 -30 -36 -75 -87 -100 -115 -54 -60 -50 -55 -125 -141 -33
-38 -78 -89 -101 -114 -22 -25 -94 -106 -158 -180 -117 -134 -227 -258 -256
-290 -8 -9 -46 -52 -83 -95 -38 -44 -81 -93 -96 -110 -27 -30 -243 -274 -291
-329 -14 -16 -30 -34 -35 -40 -12 -13 -157 -176 -195 -220 -14 -16 -30 -34
-35 -40 -6 -6 -55 -63 -110 -126 -55 -63 -109 -124 -120 -136 -11 -12 -45 -49
-75 -84 -30 -35 -66 -76 -80 -92 -14 -15 -83 -95 -155 -177 -71 -82 -133 -150
-136 -150 -3 -1 -5 812 -5 1807 1 1726 2 1808 19 1840 29 54 96 76 292 97 33
4 74 8 90 10 17 2 71 9 120 15 50 6 106 12 125 15 19 2 60 7 90 10 30 4 66 8
80 10 29 4 121 16 165 20 117 12 161 18 168 22 4 2 7 251 7 553 l0 548 -2210
0 -2210 0 0 -548z"/>
<path d="M3085 3141 c-3 -2 -5 -227 -5 -500 l0 -496 4918 1 4917 0 1 500 0
501 -4913 -1 c-2702 0 -4916 -2 -4918 -5z"/>
</g>
</svg>
